<?xml version="1.0" standalone="no"?><!DOCTYPE svg PUBLIC "-//W3C//DTD SVG 1.1//EN" "http://www.w3.org/Graphics/SVG/1.1/DTD/svg11.dtd"><svg class="icon" width="200px" height="200.00px" viewBox="0 0 1024 1024" version="1.1" xmlns="http://www.w3.org/2000/svg"><path d="M523.579733 933.767929c-3.39533 2.680039-7.487531 4.025687-11.580756 4.025687s-8.185426-1.345648-11.580756-4.025687c-12.57234-9.893324-307.930231-283.190781-307.930231-528.184611 0-176.11202 143.340639-319.377958 319.509964-319.377958s319.509964 143.265938 319.509964 319.377958C831.509964 650.577149 536.153096 923.874605 523.579733 933.767929L523.579733 933.767929zM512 256.403694c-82.344426 0-149.095713 66.75538-149.095713 149.095713 0 82.34545 66.751287 149.095713 149.095713 149.095713s149.095713-66.754357 149.095713-149.095713C661.09469 323.159074 594.340333 256.403694 512 256.403694L512 256.403694zM512 256.403694" /></svg>