<?xml version="1.0" standalone="no"?><!DOCTYPE svg PUBLIC "-//W3C//DTD SVG 1.1//EN" "http://www.w3.org/Graphics/SVG/1.1/DTD/svg11.dtd"><svg class="icon" width="200px" height="200.00px" viewBox="0 0 1024 1024" version="1.1" xmlns="http://www.w3.org/2000/svg"><path d="M591.629595 208.640877c-0.055259 54.30072-7.648191 98.187253-28.918633 139.049916-12.507872 24.02723-29.04757 45.058219-48.065715 64.189951-2.807952 2.825348-3.455705 5.328355-2.6432 9.16473 5.314029 25.085328 10.437723 50.212612 15.420201 75.365478 0.63752 3.217275 1.26276 4.706185 5.016247 4.048199 62.859653-11.022031 107.175975 32.153304 119.984698 83.630722 12.69002 50.999534-4.331655 103.705943-44.323485 133.731794-8.207939 6.16235-17.018605 11.349489-26.587542 15.033391-3.78521 1.457188-4.76349 3.178389-3.996011 7.185656 4.242627 22.161742 8.484232 44.330648 12.154831 66.591651 3.862981 23.431665 7.563256 46.855144 4.250814 70.843488-5.947456 43.068911-36.94954 70.859861-80.547501 70.768787-32.363082-0.067538-61.232596-9.868765-84.029812-33.742499-21.221324-22.224164-19.890003-63.243393 2.222621-84.08507 13.932314-13.131065 34.739199-16.175401 52.1835-7.634888 16.280802 7.970532 26.666336 25.78834 25.00244 42.896996-1.936095 19.918655-14.83794 34.743292-34.762735 39.943734-6.463202 1.686409-6.510274 1.713015-3.255137 7.528464 5.952572 10.634198 16.114003 14.586207 27.256784 16.337083 32.574906 5.116531 65.22963-15.709797 74.419943-47.306422 4.254907-14.630209 2.851954-29.500894 1.191128-44.304042-3.508917-31.278377-9.104355-62.235436-14.487969-93.227288-0.589424-3.391237-1.37123-3.882424-4.704139-3.202948-30.934546 6.310729-61.766762 6.522554-92.244914-2.682086-39.353286-11.884678-68.662823-36.69576-87.964424-72.381517-28.417213-52.538587-35.71134-107.478873-13.791098-164.489308 10.07138-26.193569 25.697265-49.081858 43.129286-70.830185 22.775726-28.417213 48.569182-54.055127 74.009597-80.006172 3.258207-3.323699 3.892657-6.288217 3.097548-10.767228-6.005784-33.825386-13.017478-67.586304-14.990413-101.922321-2.801812-48.761564 8.839319-94.1411 35.893488-135.149073 4.9088-7.441483 11.091616-13.905708 18.48091-19.040658 13.316284-9.253758 25.575492-8.144494 36.973076 3.318582 9.326413 9.379625 14.95255 20.99108 19.433608 33.17661C587.91397 151.880129 591.812767 184.305633 591.629595 208.640877zM522.952446 558.885843c-32.995485 8.946766-53.049217 45.877887-43.285852 78.94705 5.364171 18.167778 16.187681 32.651654 30.019711 45.177945 1.677199 1.518586 4.455475 2.472308 2.065032 5.945409-2.408863 3.498684-4.38282 1.064238-6.320962 0.155543-9.977235-4.677533-19.37528-10.329253-28.106128-17.087167-34.851763-26.978445-45.893236-67.712171-28.233018-106.790188 12.124132-26.828019 32.530904-45.620014 59.394738-57.356312 3.361561-1.468444 3.976568-2.651386 3.199878-6.246261-3.216251-14.886035-5.91778-29.881564-8.863878-44.825928-1.793856-9.098215-3.686972-18.176988-5.691629-28.031427-22.523993 20.794605-45.705971 39.203884-66.143443 60.649312-28.717042 30.133298-45.38363 65.159022-45.271066 107.512642 0.075725 28.253484 5.614881 54.737672 21.927405 78.367859 28.402887 41.144072 88.884376 62.929238 143.143141 47.796586 4.081968-1.137916 3.764744-3.301186 3.15383-6.427386-7.28901-37.283138-14.468526-74.586742-21.747303-111.871927C529.203824 589.487815 526.041808 574.206784 522.952446 558.885843zM496.077356 331.47446c22.652929-24.177656 43.895743-48.521087 58.904575-77.663824 10.654664-20.688181 16.059767-42.4713 14.452153-65.822125-0.575098-8.348132-1.980097-16.473183-6.444782-23.76731-5.310959-8.676613-13.44829-11.398608-22.904663-7.605212-6.39771 2.566452-11.704576 6.688329-16.264429 11.787464-13.430894 15.018042-21.067828 33.011858-26.354228 52.122101C487.370043 257.019725 487.703641 293.725718 496.077356 331.47446zM540.361955 556.106544c0 0.973164-0.098237 1.559519 0.014326 2.102894 10.491958 50.959625 21.022803 101.911064 31.455409 152.882969 0.648776 3.168156 1.919722 2.606361 3.858888 1.39272 6.576789-4.118807 12.698207-8.792247 17.928325-14.562671 30.692023-33.860179 26.907836-87.855954-1.470491-119.27657C578.426899 563.453882 561.242518 555.497677 540.361955 556.106544z"  /></svg>